<?xml version="1.0" encoding="utf-8"?>
<!-- Generator: Adobe Illustrator 16.0.0, SVG Export Plug-In . SVG Version: 6.00 Build 0)  -->
<!DOCTYPE svg PUBLIC "-//W3C//DTD SVG 1.1//EN" "http://www.w3.org/Graphics/SVG/1.1/DTD/svg11.dtd">
<svg version="1.1" id="Ebene_1" xmlns="http://www.w3.org/2000/svg" xmlns:xlink="http://www.w3.org/1999/xlink" x="0px" y="0px"
	 width="1024px" height="768px" viewBox="0 0 1024 768" enable-background="new 0 0 1024 768" xml:space="preserve">
<path fill-rule="evenodd" clip-rule="evenodd" d="M706.982,708.57c-11.051,2.913-22.24,4.336-33.565,2.638
	c-14.595-2.189-29.346-3.844-43.641-7.325c-9.425-2.294-18.175-7.377-27.211-11.253c-3.274-1.404-6.707-2.593-9.691-4.479
	c-3.428-2.167-7.168-4.489-9.396-7.702c-1.77-2.55-1.844-6.524-1.996-9.896c-0.251-5.577-1.956-11.244,0.562-16.758
	c0.626-1.367,0.789-2.964,1.513-4.264c2.708-4.862,4.849-9.649,5.354-15.512c0.724-8.376,3.178-16.591,4.534-24.933
	c2.101-12.915,3.587-25.938,5.982-38.795c0.939-5.037,1.494-10.843,7.925-13.209c3.465-1.276,5.805,0.179,8.219,1.733
	c6.645,4.276,12.997,9.026,19.78,13.062c3.606,2.146,7.944,3.021,11.802,4.798c3.527,1.621,6.786,3.818,10.289,5.5
	c1.771,0.85,3.787,1.299,5.744,1.627c12.578,2.106,25.193,2.965,37.838,0.578c8.956-1.692,17.635-4.39,24.54-10.557
	c8.105-7.24,15.222-15.385,19.56-25.6c2.624-6.184,1.795-12.565,1.225-18.901c-0.272-3.027-1.538-5.965-1.82-8.992
	c-0.596-6.387-4.188-10.649-8.777-14.714c-5.383-4.766-10.195-10.17-15.32-15.234c-7.083-6.997-199.727-210.223-206.047-216.456
	c-6.104-6.02-12.124-12.121-18.172-18.197c-8.708-8.746-17.342-17.566-26.129-26.233c-6.488-6.398-13.292-12.475-19.721-18.928
	c-4.162-4.179-7.867-8.809-11.853-13.171c-1.352-1.479-2.897-2.79-4.415-4.109c-5.182-4.514-9.98-9.636-15.708-13.304
	c-5.43-3.478-11.938-5.668-18.388-1.982c-3.533,2.02-7.635,4.108-9.754,7.309c-4.168,6.297-3.069,13.185,0.768,19.594
	c1.743,2.913,3.06,6.173,5.223,8.724c5.425,6.397,11.153,12.544,16.887,18.675c7.121,7.615,14.337,15.142,21.57,22.649
	c6.471,6.713,13.031,13.343,19.536,20.023c5.847,6.004,11.688,12.015,17.503,18.049c8.328,8.644,16.631,17.314,24.947,25.971
	c7.45,7.754,15.003,15.41,22.33,23.28c8.505,9.132,16.759,18.497,25.23,27.66c3.034,3.282,6.574,6.105,9.531,9.45
	c2.597,2.937,4.344,6.668,7.104,9.404c4.314,4.279,9.354,7.822,13.747,12.029c5.307,5.085,10.192,10.602,15.382,15.812
	c5.66,5.684,11.499,11.188,17.177,16.851c3.264,3.257,6.371,6.667,9.534,10.021c3.373,3.576,6.747,7.154,10.09,10.759
	c5.623,6.058,11.29,12.079,16.8,18.239c2.248,2.515,1.844,7.078-1.056,10.147c-6.582,6.965-13.493,13.621-20.024,20.634
	c-3.04,3.264-5.371,7.178-8.266,10.589c-3.068,3.614-6.099,7.392-9.775,10.303c-2.351,1.864-5.786,2.486-8.839,3.275
	c-1.875,0.487-2.626,1.419-2.487,3.134c0.524,6.463-3.727,10.239-7.798,14.154c-3.545,3.409-7.141,6.778-10.532,10.34
	c-1.773,1.863-3.033,4.209-4.743,6.147c-2.601,2.948-6.424,3.146-9.211,0.262c-3.983-4.13-7.409-8.827-11.586-12.735
	c-6.212-5.812-12.949-11.062-19.313-16.718c-3.958-3.515-7.569-7.421-11.475-11.002c-5.29-4.854-10.789-9.481-16.052-14.363
	c-3.472-3.222-6.722-6.686-10.003-10.104c-3.029-3.155-5.904-6.457-8.959-9.585c-11.227-11.501-22.525-22.936-33.75-34.438
	c-6.334-6.493-12.097-13.642-18.975-19.484c-10.541-8.952-19.751-19.121-29.208-29.104c-3.696-3.902-7.881-7.336-11.694-11.135
	c-7.25-7.224-14.414-14.534-21.574-21.848c-7.665-7.832-15.293-15.697-22.915-23.57c-8.205-8.476-16.284-17.078-24.625-25.419
	c-3.085-3.085-6.719-5.632-10.168-8.341c-3.301-2.593-6.84-4.899-10.003-7.645c-5.942-5.158-19.113-5.307-24.842,0.044
	c-2.133,1.993-5.002,3.037-6.014,6.464c-1.964,6.646-2.416,13.021,1.543,18.971c2.87,4.313,5.942,8.551,9.392,12.404
	c6.781,7.576,13.78,14.966,20.888,22.243c7.829,8.014,15.936,15.758,23.818,23.722c5.632,5.69,11.07,11.571,16.642,17.321
	c2.527,2.605,5.189,5.08,7.75,7.653c4.204,4.224,8.351,8.505,12.569,12.715c3.991,3.983,8.11,7.841,12.05,11.874
	c5.277,5.402,10.441,10.911,15.642,16.387c6.961,7.33,13.851,14.734,20.893,21.99c3.367,3.468,7.077,6.602,10.517,10.004
	c8.223,8.131,16.478,16.23,24.53,24.525c9.628,9.918,18.968,20.113,28.604,30.022c8.021,8.249,16.407,16.143,24.41,24.408
	c6.488,6.7,12.64,13.726,18.955,20.596c3.014,3.277,6.267,6.363,9.033,9.841c2.745,3.447,1.648,9.082-1.587,12.221
	c-6.431,6.24-12.707,12.64-19.062,18.958c-1.426,1.418-3.014,2.682-4.354,4.174c-3.463,3.858-6.798,7.832-10.252,11.699
	c-1.705,1.909-3.575,3.67-5.333,5.531c-2.808,2.979-5.527,6.04-8.387,8.968c-3.33,3.406-6.788,6.688-10.146,10.066
	c-0.823,0.828-1.515,1.794-2.208,2.741c-3.9,5.325-8.787,9.263-14.883,12.025c-6.762,3.062-11.836,0.291-16.583-3.862
	c-3.638-3.183-6.902-6.793-10.327-10.223c-4.587-4.593-9.068-9.296-13.775-13.765c-8.113-7.701-16.426-15.188-24.527-22.902
	c-3.228-3.073-6.052-6.567-9.167-9.767c-7.242-7.438-14.549-14.812-21.827-22.213c-5.611-5.707-11.18-11.455-16.842-17.112
	c-4.664-4.661-9.463-9.19-14.151-13.829c-3.802-3.762-7.513-7.613-11.289-11.4c-4.878-4.889-9.705-9.832-14.693-14.604
	c-4.986-4.773-10.315-9.195-15.18-14.083c-4.456-4.478-8.372-9.488-12.747-14.056c-4.672-4.874-9.68-9.429-14.395-14.266
	c-3.183-3.263-5.973-6.912-9.192-10.138c-3.134-3.141-6.621-5.926-9.897-8.929c-3.639-3.335-7.284-6.668-10.801-10.129
	c-6.469-6.367-12.847-12.828-19.263-19.25c-7.403-7.409-14.752-14.873-22.228-22.206c-7.128-6.993-14.467-13.771-21.567-20.789
	c-5.767-5.703-11.253-11.69-16.985-17.431c-4.976-4.984-10.173-9.746-15.172-14.709c-2.674-2.655-5.078-5.58-7.701-8.288
	c-3.287-3.391-6.534-6.842-10.057-9.976c-3.713-3.304-5.46-7.882-6.189-12.191c-0.896-5.288,1.26-10.499,5.34-14.539
	c10.153-10.053,20.36-20.051,30.352-30.263c5.474-5.595,10.394-11.732,15.85-17.348c6.587-6.781,13.377-13.374,20.285-19.828
	c2.747-2.567,5.94-4.71,9.122-6.746c4.354-2.788,8.404-0.424,12.242,1.446c2.684,1.306,4.976,3.391,7.574,4.902
	c2.79,1.622,5.735,0.773,7.263-2.045c2.627-4.846,4.378-9.882,5.136-15.494c0.717-5.297,2.77-10.471,4.66-15.54
	c2.528-6.777,4.854-13.749,8.403-19.99c3.474-6.11,8.08-11.667,12.739-16.984c3.709-4.234,8.038-8.01,12.486-11.483
	c3.311-2.586,7.269-4.337,10.911-6.508c9.313-5.548,19.956-5.917,30.209-7.818c3.474-0.644,6.888-1.643,10.375-2.17
	c2.097-0.317,4.293-0.157,6.429-0.003c7.246,0.523,12.835-4.276,13.494-11.472c0.765-8.354,1.276-16.674,3.978-24.827
	c2.453-7.404,3.168-15.369,5.332-22.89c2.291-7.963,6.472-15.145,11.505-21.72c3.717-4.854,7.455-9.787,11.831-14.016
	c4.774-4.616,10.197-8.592,15.541-12.571c1.836-1.367,4.246-2.033,6.471-2.796c7.424-2.545,14.731-5.743,22.367-7.275
	c9.049-1.815,18.216-3.857,27.697-2.174c5.892,1.045,12.038,0.728,17.893,1.901c4.205,0.841,8.507,2.546,12.084,4.904
	c8.481,5.59,16.953,11.327,24.68,17.887c7.563,6.419,14.21,13.919,21.241,20.962c5.815,5.824,11.686,11.595,17.387,17.529
	c9.07,9.443,17.993,19.033,27.046,28.497c2.291,2.394,4.673,4.758,7.307,6.75c3.462,2.62,7.443,1.349,10.148-2.014
	c4.441-5.521,9.008-11.008,14.068-15.948c6.233-6.083,12.928-11.713,19.625-17.295c3.121-2.602,6.756-4.58,10.095-6.932
	c3.95-2.786,7.574-6.148,11.796-8.412c9.811-5.264,19.892-10.021,29.873-14.968c0.525-0.262,1.105-0.467,1.683-0.568
	c11.861-2.078,23.183-7.105,35.412-7c11.088,0.095,22.195,0.542,33.253,1.375c6.458,0.487,12.973,1.528,19.219,3.224
	c8.054,2.191,15.943,5.067,23.746,8.06c5.946,2.282,11.927,4.732,17.392,7.954c9.22,5.433,19.139,10.396,24.105,20.699
	c2.407,4.992,4.773,9.908,2.372,16.192c-3.233,8.464-4.496,17.529-5.548,26.609c-1.099,9.495-3.376,18.741-6.53,27.901
	c-3.583,10.405-5.517,21.38-8.131,32.118c-0.752,3.092-1.15,6.286-2.101,9.311c-1.337,4.255-6.147,6.514-10.416,4.893
	c-3.66-1.39-6.125-4.178-8.689-7.195c-2.881-3.387-7.053-5.689-10.719-8.388c-1.701-1.253-3.652-2.183-5.279-3.517
	c-9.104-7.444-19.431-11.916-31.184-12.792c-5.587-0.416-11.229-0.888-16.793-0.534c-4.149,0.264-8.42,1.311-12.27,2.901
	c-7.283,3.008-14.533,6.254-21.33,10.202c-3.659,2.124-6.706,5.63-9.385,9.021c-3.021,3.82-5.722,8.018-7.828,12.405
	c-2.51,5.232,1.465,17.606,5.982,21.523c3.123,2.708,5.857,5.865,8.766,8.822c4.861,4.943,9.831,9.785,14.557,14.856
	c6.504,6.981,12.765,14.192,19.243,21.198c3.834,4.148,8.115,7.9,11.777,12.189c2.729,3.196,7.228,7.109,9.666,10.565
	c4.702,6.667,26.087,26.136,30.07,30.168c8.703,8.807,16.334,15.518,25.139,24.222c3.704,3.664,8.2,11.618,11.925,15.264
	c7.091,6.943,11.975,13.003,18.64,20.343c6.362,7.008,9.451,14.06,14.521,21.984c6.322,9.882,11.293,20.637,16.703,31.09
	c1.324,2.56,2.316,5.348,3.039,8.142c0.594,2.295,0.263,4.831,0.854,7.127c1.843,7.147,4.207,14.17,5.819,21.365
	c1.02,4.546,1.446,9.312,1.454,13.981c0.014,8.868-0.222,17.753-0.835,26.601c-0.365,5.259-1.461,10.5-2.577,15.673
	c-1.321,6.124-2.73,12.259-4.629,18.219c-2.465,7.743-4.379,15.644-8.391,22.924c-4.253,7.719-7.206,16.142-11.286,23.97
	c-3.195,6.124-6.933,12.031-10.99,17.627c-5.334,7.361-10.812,14.704-17.006,21.327c-4.292,4.59-9.628,8.379-14.978,11.771
	c-9.148,5.798-18.529,11.268-28.083,16.368c-7.081,3.778-14.447,7.129-21.944,9.992c-9.234,3.526-18.736,6.35-28.124,9.476
	C707.199,709.4,707.09,708.985,706.982,708.57z M526.569,402.128c-2.471,0.601-4.409,0.411-5.16,3.295
	c-1.536,5.892-3.788,11.598-5.407,17.472c-0.322,1.168,0.484,3.144,1.434,4.071c2.606,2.546,8.16,2.994,10.882,1.269
	c2.856-1.812,6.147-8.813,4.996-11.611C531.321,411.781,528.915,407.111,526.569,402.128z M639.01,650.283
	c0.13,6.705,1.544,9.195,5.25,8.785c5.088-0.569,9.149-1.605,7.718-9.029C647.741,650.118,643.484,650.199,639.01,650.283z
	 M574.973,520.783c3.799,1.514,7.072,2.726,10.264,4.13c1.319,0.583,2.736,2.472,3.681,0.172c0.404-0.983-0.573-3.541-1.474-3.87
	c-3.154-1.151-6.527-1.795-9.868-2.267C576.795,518.836,575.811,520.157,574.973,520.783z M840.441,485.838
	c0.388,0.191,0.777,0.381,1.167,0.571c1.138-1,2.315-1.964,3.356-3.058c0.102-0.108-0.648-1.479-1-1.478
	c-1.123,0.008-2.629,0.036-3.257,0.724C840.129,483.229,840.493,484.725,840.441,485.838z M541.577,386.65
	c-0.165,0.406-0.331,0.812-0.495,1.216c1.58,3.309,4.121,3.206,7.326,0.865C546.132,388.039,543.854,387.345,541.577,386.65z"/>
</svg>
